<?xml version="1.0" encoding="UTF-8" standalone="no"?>
<!DOCTYPE svg PUBLIC "-//W3C//DTD SVG 1.1//EN" "http://www.w3.org/Graphics/SVG/1.1/DTD/svg11.dtd">
<svg width="100%" height="100%" viewBox="0 0 371 512" version="1.1" xmlns="http://www.w3.org/2000/svg" xmlns:xlink="http://www.w3.org/1999/xlink" xml:space="preserve" xmlns:serif="http://www.serif.com/" style="fill-rule:evenodd;clip-rule:evenodd;stroke-linejoin:round;stroke-miterlimit:2;">
    <g transform="matrix(1,0,0,1,-70.8,0)">
        <g transform="matrix(0.1,0,0,-0.1,0,512)">
            <path d="M1660,5120L1660,4340L710,4340L710,3840L908,3840C1149,3840 1193,3830 1257,3764C1334,3684 1330,3747 1330,2571C1330,1979 1326,1508 1320,1486C1310,1441 1286,1405 1246,1376C1221,1357 1202,1355 1011,1352L804,1349L762,1091C738,950 717,824 713,812L708,790L1161,790C1411,790 1625,787 1638,784L1660,778L1660,0L2140,0L2140,782L2163,776C2175,773 2258,770 2348,770L2510,770L2510,0L2980,0L2982,392L2985,785L3139,797C3953,862 4330,1153 4401,1770C4424,1972 4395,2191 4328,2326C4237,2510 4052,2653 3813,2726L3728,2752L3795,2792C3902,2856 3999,2962 4053,3072C4111,3191 4130,3278 4130,3427C4130,3564 4118,3647 4085,3746C3975,4074 3671,4256 3110,4329L2985,4345L2982,4733L2980,5120L2510,5120L2510,4373L2449,4366C2415,4363 2329,4360 2259,4360L2130,4360L2130,5120L1660,5120ZM2639,3799C2849,3780 3021,3722 3112,3641C3276,3495 3293,3221 3149,3071C3006,2922 2760,2861 2308,2860L2140,2860L2140,3328C2140,3586 2143,3800 2147,3803C2157,3814 2514,3811 2639,3799ZM2878,2366C3060,2334 3251,2258 3329,2187C3394,2126 3450,2016 3464,1919C3481,1804 3419,1636 3332,1560C3273,1508 3130,1439 3025,1411C2850,1366 2555,1341 2268,1348L2140,1351L2140,1864C2140,2146 2143,2380 2148,2384C2162,2399 2777,2383 2878,2366Z" style="fill-rule:nonzero;"/>
        </g>
    </g>
</svg>
