<?xml version="1.0" encoding="UTF-8" standalone="no"?>
<!DOCTYPE svg PUBLIC "-//W3C//DTD SVG 1.1//EN" "http://www.w3.org/Graphics/SVG/1.1/DTD/svg11.dtd">
<svg width="100%" height="100%" viewBox="0 0 1038 1926" version="1.1" xmlns="http://www.w3.org/2000/svg" xmlns:xlink="http://www.w3.org/1999/xlink" xml:space="preserve" xmlns:serif="http://www.serif.com/" style="fill-rule:evenodd;clip-rule:evenodd;stroke-linejoin:round;stroke-miterlimit:2;">
    <g transform="matrix(1,0,0,1,-512,-61)">
        <g transform="matrix(0.1,0,0,-0.1,0,2048)">
            <path d="M9628,19328L9625,18785L9540,18778C8365,18674 7507,18370 6781,17799C6645,17691 6369,17416 6257,17275C5813,16719 5559,16071 5470,15265C5452,15104 5446,14616 5459,14409C5551,12983 6126,11963 7233,11261C7732,10944 8222,10736 9395,10342L9625,10265L9628,7321L9630,4377L9558,4384C9518,4388 9407,4402 9311,4416C8417,4545 7784,4828 7389,5274C7176,5514 7003,5848 6905,6206C6804,6573 6760,6946 6759,7421L6759,7680L6692,7680C6655,7680 6330,7689 5970,7700C5610,7711 5271,7720 5218,7720L5120,7720L5120,7438C5120,5933 5521,4806 6341,4004C7028,3334 7967,2933 9220,2776C9327,2762 9451,2749 9495,2745C9539,2742 9587,2736 9603,2734L9630,2728L9630,610L10850,610L10852,1663L10855,2715L10960,2722C11378,2750 11750,2801 12110,2881C13304,3144 14218,3727 14785,4585C15192,5203 15412,5902 15480,6795C15494,6979 15494,7540 15480,7705C15439,8184 15310,8664 15109,9080C14914,9484 14699,9784 14376,10105C14038,10442 13694,10687 13225,10925C12603,11241 11905,11457 10955,11628L10855,11645L10852,14394L10850,17143L10937,17136C11276,17109 11668,17031 11953,16934C12562,16726 12956,16400 13189,15908C13346,15577 13414,15247 13436,14699L13442,14553L13898,14547C14150,14543 14517,14537 14714,14533L15073,14527L15067,14796C15061,15081 15044,15284 15005,15517C14888,16208 14652,16769 14264,17270C14150,17418 13837,17731 13690,17844C13317,18132 12921,18339 12445,18498C12027,18637 11521,18735 11015,18773L10855,18785L10852,19328L10850,19870L9630,19870L9628,19328ZM9630,17140L9630,11998L9603,12005C9587,12008 9496,12039 9400,12072C8615,12342 8148,12576 7805,12871C7378,13237 7158,13727 7099,14445C7082,14652 7092,15079 7119,15248C7264,16187 7836,16762 8882,17020C9089,17071 9468,17134 9603,17139L9630,17140ZM11007,9949C12197,9702 12993,9294 13431,8708C13641,8427 13779,8078 13834,7690C13869,7443 13863,6988 13820,6653C13679,5559 13143,4907 12110,4575C11796,4474 11335,4391 10948,4364L10850,4357L10850,7169C10850,8715 10852,9980 10855,9980C10857,9980 10926,9966 11007,9949Z" style="fill-rule:nonzero;"/>
        </g>
    </g>
</svg>
